<svg width="25" height="24" viewBox="0 0 25 24" fill="none" xmlns="http://www.w3.org/2000/svg">
<path d="M12.7929 5.29289C13.1834 4.90237 13.8166 4.90237 14.2071 5.29289L20.2071 11.2929C20.3946 11.4804 20.5 11.7348 20.5 12C20.5 12.2652 20.3946 12.5196 20.2071 12.7071L14.2071 18.7071C13.8166 19.0976 13.1834 19.0976 12.7929 18.7071C12.4024 18.3166 12.4024 17.6834 12.7929 17.2929L17.0858 13L5.5 13C4.94772 13 4.5 12.5523 4.5 12C4.5 11.4477 4.94772 11 5.5 11L17.0858 11L12.7929 6.70711C12.4024 6.31658 12.4024 5.68342 12.7929 5.29289Z" fill="white"/>
</svg>
