<svg width="107" height="40" viewBox="0 0 107 40" fill="none" xmlns="http://www.w3.org/2000/svg">
<rect width="107" height="40" rx="20" fill="#EAEAEA"/>
<rect width="40" height="40" rx="20" fill="#DBDBDB"/>
<path d="M20 12C17.7909 12 16 13.7909 16 16C16 18.2091 17.7909 20 20 20C22.2091 20 24 18.2091 24 16C24 13.7909 22.2091 12 20 12ZM14 16C14 12.6863 16.6863 10 20 10C23.3137 10 26 12.6863 26 16C26 19.3137 23.3137 22 20 22C16.6863 22 14 19.3137 14 16ZM16 26C14.3431 26 13 27.3431 13 29C13 29.5523 12.5523 30 12 30C11.4477 30 11 29.5523 11 29C11 26.2386 13.2386 24 16 24H24C26.7614 24 29 26.2386 29 29C29 29.5523 28.5523 30 28 30C27.4477 30 27 29.5523 27 29C27 27.3431 25.6569 26 24 26H16Z" fill="#414B53"/>
<path d="M54.762 18.918C55.2193 19.114 55.5787 19.4267 55.84 19.856C56.1013 20.2853 56.232 20.766 56.232 21.298C56.232 22.0633 55.9473 22.7073 55.378 23.23C54.8087 23.7433 54.104 24 53.264 24H49.344V14.2H53.208C54.0107 14.2 54.6687 14.438 55.182 14.914C55.7047 15.39 55.966 15.9873 55.966 16.706C55.966 17.1447 55.854 17.5693 55.63 17.98C55.4153 18.3907 55.126 18.7033 54.762 18.918ZM54.72 16.874C54.72 16.594 54.65 16.342 54.51 16.118C54.3793 15.894 54.1973 15.7213 53.964 15.6C53.7307 15.4693 53.4693 15.404 53.18 15.404H50.548V18.344H53.194C53.6233 18.344 53.9827 18.204 54.272 17.924C54.5707 17.6347 54.72 17.2847 54.72 16.874ZM53.25 22.782C53.7353 22.782 54.1413 22.628 54.468 22.32C54.7947 22.012 54.958 21.6247 54.958 21.158C54.958 20.7007 54.7947 20.318 54.468 20.01C54.1413 19.702 53.7353 19.548 53.25 19.548H50.548V22.782H53.25ZM61.6294 24.168C60.8828 24.168 60.2014 24 59.5854 23.664C58.9694 23.3187 58.4888 22.8473 58.1434 22.25C57.7981 21.6433 57.6254 20.9667 57.6254 20.22C57.6254 19.0813 58.0034 18.1387 58.7594 17.392C59.5248 16.6453 60.4814 16.272 61.6294 16.272C62.3854 16.272 63.0668 16.4447 63.6734 16.79C64.2894 17.126 64.7701 17.5973 65.1154 18.204C65.4701 18.8013 65.6474 19.4733 65.6474 20.22C65.6474 21.3493 65.2648 22.292 64.4994 23.048C63.7341 23.7947 62.7774 24.168 61.6294 24.168ZM59.6274 22.236C60.1594 22.7587 60.8268 23.02 61.6294 23.02C62.4414 23.02 63.1088 22.7587 63.6314 22.236C64.1634 21.704 64.4294 21.032 64.4294 20.22C64.4294 19.408 64.1634 18.7407 63.6314 18.218C63.1088 17.686 62.4414 17.42 61.6294 17.42C60.8268 17.42 60.1594 17.686 59.6274 18.218C59.1048 18.7407 58.8434 19.408 58.8434 20.22C58.8434 21.032 59.1048 21.704 59.6274 22.236ZM72.412 14.018V14.914H68.744V14.018H72.412ZM73.014 16.44H73.672V24H72.552V18.596L68.142 24H67.456V16.44H68.59V21.802L73.014 16.44ZM81.9069 16.44V17.518H79.0929V24H77.9309V17.518H75.1169V16.44H81.9069ZM88.9007 16.44H89.5587V24H88.4387V18.596L84.0287 24H83.3427V16.44H84.4767V21.802L88.9007 16.44Z" fill="#414B53"/>
</svg>
