<svg width="20" height="20" viewBox="0 0 20 20" fill="none" xmlns="http://www.w3.org/2000/svg">
<path d="M10.002 3.85085C12.0063 3.85085 12.2436 3.85964 13.0318 3.8948C13.7644 3.92704 14.16 4.05011 14.4237 4.15267C14.7724 4.28746 15.0244 4.45155 15.2852 4.71235C15.5489 4.97607 15.7101 5.22514 15.8449 5.57384C15.9475 5.83757 16.0705 6.23608 16.1028 6.96572C16.1379 7.75689 16.1467 7.99424 16.1467 9.99561C16.1467 11.9999 16.1379 12.2373 16.1028 13.0255C16.0705 13.7581 15.9475 14.1536 15.8449 14.4174C15.7101 14.7661 15.546 15.0181 15.2852 15.2789C15.0215 15.5426 14.7724 15.7038 14.4237 15.8385C14.16 15.9411 13.7615 16.0642 13.0318 16.0964C12.2407 16.1316 12.0033 16.1404 10.002 16.1404C7.99766 16.1404 7.76031 16.1316 6.97207 16.0964C6.2395 16.0642 5.84392 15.9411 5.58019 15.8385C5.23149 15.7038 4.97949 15.5397 4.7187 15.2789C4.45497 15.0151 4.29381 14.7661 4.15902 14.4174C4.05646 14.1536 3.93339 13.7551 3.90115 13.0255C3.86599 12.2343 3.8572 11.997 3.8572 9.99561C3.8572 7.99131 3.86599 7.75396 3.90115 6.96572C3.93339 6.23315 4.05646 5.83757 4.15902 5.57384C4.29381 5.22514 4.4579 4.97314 4.7187 4.71235C4.98242 4.44862 5.23149 4.28746 5.58019 4.15267C5.84392 4.05011 6.24243 3.92704 6.97207 3.8948C7.76031 3.85964 7.99766 3.85085 10.002 3.85085ZM10.002 2.5C7.96542 2.5 7.71049 2.50879 6.91053 2.54395C6.1135 2.57912 5.56554 2.70805 5.09084 2.89265C4.59562 3.08605 4.1766 3.34098 3.7605 3.76001C3.34147 4.17611 3.08654 4.59514 2.89314 5.08742C2.70854 5.56505 2.57961 6.11008 2.54444 6.90711C2.50928 7.71 2.50049 7.96493 2.50049 10.0015C2.50049 12.038 2.50928 12.2929 2.54444 13.0929C2.57961 13.8899 2.70854 14.4379 2.89314 14.9126C3.08654 15.4078 3.34147 15.8268 3.7605 16.2429C4.1766 16.659 4.59562 16.9169 5.08791 17.1073C5.56554 17.292 6.11057 17.4209 6.9076 17.456C7.70756 17.4912 7.96249 17.5 9.99902 17.5C12.0356 17.5 12.2905 17.4912 13.0904 17.456C13.8875 17.4209 14.4354 17.292 14.9101 17.1073C15.4024 16.9169 15.8215 16.659 16.2375 16.2429C16.6536 15.8268 16.9115 15.4078 17.102 14.9155C17.2866 14.4379 17.4155 13.8929 17.4507 13.0958C17.4858 12.2959 17.4946 12.0409 17.4946 10.0044C17.4946 7.96787 17.4858 7.71293 17.4507 6.91297C17.4155 6.11594 17.2866 5.56798 17.102 5.09328C16.9174 4.59514 16.6624 4.17611 16.2434 3.76001C15.8273 3.34391 15.4083 3.08605 14.916 2.89559C14.4384 2.71098 13.8933 2.58205 13.0963 2.54688C12.2934 2.50879 12.0385 2.5 10.002 2.5Z" fill="#414B53"/>
<path d="M10.002 6.14819C7.87461 6.14819 6.14868 7.87412 6.14868 10.0015C6.14868 12.1289 7.87461 13.8548 10.002 13.8548C12.1293 13.8548 13.8553 12.1289 13.8553 10.0015C13.8553 7.87412 12.1293 6.14819 10.002 6.14819ZM10.002 12.501C8.62182 12.501 7.50246 11.3816 7.50246 10.0015C7.50246 8.62133 8.62182 7.50197 10.002 7.50197C11.3821 7.50197 12.5015 8.62133 12.5015 10.0015C12.5015 11.3816 11.3821 12.501 10.002 12.501Z" fill="#414B53"/>
<path d="M14.9072 5.99578C14.9072 6.49393 14.5028 6.89537 14.0076 6.89537C13.5095 6.89537 13.108 6.491 13.108 5.99578C13.108 5.49764 13.5124 5.09619 14.0076 5.09619C14.5028 5.09619 14.9072 5.50057 14.9072 5.99578Z" fill="#414B53"/>
</svg>
