<svg width="24" height="24" viewBox="0 0 24 24" fill="none" xmlns="http://www.w3.org/2000/svg">
<path fill-rule="evenodd" clip-rule="evenodd" d="M4.58463 6H2.2877C1.63128 6 1.5 6.2971 1.5 6.62552C1.5 7.21061 2.27825 10.1149 5.12657 13.9549C7.0244 16.5782 9.69943 18 12.1329 18C13.5938 18 13.7745 17.6837 13.7745 17.1411V15.1584C13.7745 14.5268 13.9131 14.4005 14.3752 14.4005C14.7166 14.4005 15.2995 14.5642 16.6638 15.8284C18.2213 17.328 18.4776 18 19.3535 18H21.6515C22.3079 18 22.6366 17.6837 22.4465 17.0602C22.2396 16.4397 21.496 15.5384 20.5088 14.4702C19.9731 13.8619 19.1707 13.2061 18.9271 12.8776C18.5857 12.4563 18.6834 12.2693 18.9271 11.8944C18.9271 11.8944 21.726 8.10088 22.018 6.81246C22.1651 6.34459 22.018 6 21.3227 6H19.0258C18.4419 6 18.1719 6.2971 18.0259 6.62552C18.0259 6.62552 16.8581 9.36505 15.2028 11.1446C14.6672 11.66 14.4235 11.8247 14.1316 11.8247C13.9856 11.8247 13.7745 11.66 13.7745 11.1921V6.81246C13.7745 6.25061 13.6054 6 13.1181 6H9.50723C9.14279 6 8.92329 6.26072 8.92329 6.5083C8.92329 7.04084 9.7509 7.16413 9.83597 8.66274V11.9176C9.83597 12.6321 9.70258 12.7614 9.40956 12.7614C8.63131 12.7614 6.73663 10.0088 5.61284 6.85996C5.39229 6.24758 5.17173 6 4.58463 6Z" fill="white"/>
</svg>
