<svg width="20" height="20" viewBox="0 0 20 20" fill="none" xmlns="http://www.w3.org/2000/svg">
<path fill-rule="evenodd" clip-rule="evenodd" d="M3.82053 5H1.90642C1.3594 5 1.25 5.24758 1.25 5.52126C1.25 6.00884 1.89854 8.42905 4.27214 11.6291C5.85367 13.8152 8.08286 15 10.1108 15C11.3282 15 11.4787 14.7364 11.4787 14.2842V12.632C11.4787 12.1057 11.5943 12.0004 11.9794 12.0004C12.2638 12.0004 12.7495 12.1368 13.8865 13.1903C15.1844 14.44 15.398 15 16.1279 15H18.0429C18.5899 15 18.8638 14.7364 18.7054 14.2168C18.533 13.6998 17.9134 12.9486 17.0906 12.0585C16.6443 11.5516 15.9756 11.0051 15.7726 10.7314C15.4881 10.3802 15.5695 10.2244 15.7726 9.912C15.7726 9.912 18.105 6.75074 18.3483 5.67705C18.4709 5.28716 18.3483 5 17.7689 5H15.8548C15.3682 5 15.1433 5.24758 15.0216 5.52126C15.0216 5.52126 14.0484 7.80421 12.669 9.28716C12.2227 9.71663 12.0196 9.85389 11.7763 9.85389C11.6546 9.85389 11.4787 9.71663 11.4787 9.32674V5.67705C11.4787 5.20884 11.3378 5 10.9317 5H7.9227C7.61899 5 7.43607 5.21726 7.43607 5.42358C7.43607 5.86737 8.12575 5.97011 8.19664 7.21895V9.93137C8.19664 10.5267 8.08549 10.6345 7.8413 10.6345C7.19276 10.6345 5.61386 8.34063 4.67737 5.71663C4.49357 5.20632 4.30978 5 3.82053 5Z" fill="#414B53"/>
</svg>
