<svg width="40" height="40" viewBox="0 0 40 40" fill="none" xmlns="http://www.w3.org/2000/svg">
<rect x="0.5" y="0.5" width="39" height="39" rx="19.5" fill="#F5F5F4"/>
<path d="M20 12.5573C17.6442 10.4056 14.0213 10.4836 11.7574 12.7915C9.41421 15.1802 9.41421 19.053 11.7574 21.4417L18.5858 28.4028C19.3668 29.1991 20.6332 29.1991 21.4142 28.4028L28.2426 21.4417C30.5858 19.053 30.5858 15.1802 28.2426 12.7915C25.9787 10.4836 22.3558 10.4056 20 12.5573ZM18.8284 14.2332L19.2929 14.7067C19.6834 15.1048 20.3166 15.1048 20.7071 14.7067L21.1716 14.2332C22.7337 12.6408 25.2663 12.6408 26.8284 14.2332C28.3905 15.8257 28.3905 18.4075 26.8284 20L20 26.9611L13.1716 20C11.6095 18.4075 11.6095 15.8257 13.1716 14.2332C14.7337 12.6408 17.2663 12.6408 18.8284 14.2332Z" fill="#414B53"/>
<rect x="0.5" y="0.5" width="39" height="39" rx="19.5" stroke="#DBDBDB"/>
</svg>
