<svg width="40" height="40" viewBox="0 0 40 40" fill="none" xmlns="http://www.w3.org/2000/svg">
<rect width="40" height="40" rx="20" fill="white"/>
<path d="M20 10C15.6 10 12 13.6 12 18C12 23.4 19 29.5 19.3 29.8C19.5 29.9 19.8 30 20 30C20.2 30 20.5 29.9 20.7 29.8C21 29.5 28 23.4 28 18C28 13.6 24.4 10 20 10ZM20 27.7C17.9 25.7 14 21.4 14 18C14 14.7 16.7 12 20 12C23.3 12 26 14.7 26 18C26 21.3 22.1 25.7 20 27.7ZM20 14C17.8 14 16 15.8 16 18C16 20.2 17.8 22 20 22C22.2 22 24 20.2 24 18C24 15.8 22.2 14 20 14ZM20 20C18.9 20 18 19.1 18 18C18 16.9 18.9 16 20 16C21.1 16 22 16.9 22 18C22 19.1 21.1 20 20 20Z" fill="#5072AD"/>
</svg>
