<svg width="24" height="24" viewBox="0 0 24 24" fill="none" xmlns="http://www.w3.org/2000/svg">
<path d="M12.0023 4.62102C14.4075 4.62102 14.6923 4.63157 15.6382 4.67376C16.5173 4.71244 16.992 4.86013 17.3084 4.9832C17.7269 5.14495 18.0293 5.34186 18.3422 5.65482C18.6587 5.97128 18.8521 6.27017 19.0138 6.68861C19.1369 7.00508 19.2846 7.4833 19.3233 8.35886C19.3655 9.30826 19.376 9.59308 19.376 11.9947C19.376 14.3999 19.3655 14.6847 19.3233 15.6306C19.2846 16.5097 19.1369 16.9844 19.0138 17.3008C18.8521 17.7193 18.6552 18.0217 18.3422 18.3346C18.0258 18.6511 17.7269 18.8445 17.3084 19.0063C16.992 19.1293 16.5137 19.277 15.6382 19.3157C14.6888 19.3579 14.404 19.3684 12.0023 19.3684C9.59715 19.3684 9.31233 19.3579 8.36644 19.3157C7.48736 19.277 7.01266 19.1293 6.69619 19.0063C6.27775 18.8445 5.97535 18.6476 5.6624 18.3346C5.34593 18.0182 5.15253 17.7193 4.99078 17.3008C4.86771 16.9844 4.72003 16.5062 4.68135 15.6306C4.63915 14.6812 4.6286 14.3964 4.6286 11.9947C4.6286 9.58957 4.63915 9.30475 4.68135 8.35886C4.72003 7.47978 4.86771 7.00508 4.99078 6.68861C5.15253 6.27017 5.34945 5.96777 5.6624 5.65482C5.97887 5.33835 6.27775 5.14495 6.69619 4.9832C7.01266 4.86013 7.49088 4.71244 8.36644 4.67376C9.31233 4.63157 9.59715 4.62102 12.0023 4.62102ZM12.0023 3C9.55847 3 9.25255 3.01055 8.2926 3.05274C7.33616 3.09494 6.67861 3.24966 6.10897 3.47119C5.51471 3.70326 5.01188 4.00918 4.51256 4.51201C4.00973 5.01133 3.70381 5.51416 3.47174 6.1049C3.25021 6.67806 3.09549 7.3321 3.05329 8.28853C3.0111 9.252 3.00055 9.55792 3.00055 12.0018C3.00055 14.4456 3.0111 14.7515 3.05329 15.7115C3.09549 16.6679 3.25021 17.3255 3.47174 17.8951C3.70381 18.4894 4.00973 18.9922 4.51256 19.4915C5.01188 19.9908 5.51471 20.3003 6.10545 20.5288C6.67861 20.7503 7.33265 20.9051 8.28908 20.9473C9.24904 20.9895 9.55495 21 11.9988 21C14.4426 21 14.7485 20.9895 15.7085 20.9473C16.6649 20.9051 17.3225 20.7503 17.8921 20.5288C18.4829 20.3003 18.9857 19.9908 19.485 19.4915C19.9843 18.9922 20.2938 18.4894 20.5223 17.8986C20.7439 17.3255 20.8986 16.6714 20.9408 15.715C20.983 14.755 20.9935 14.4491 20.9935 12.0053C20.9935 9.56144 20.983 9.25552 20.9408 8.29557C20.8986 7.33913 20.7439 6.68158 20.5223 6.11194C20.3008 5.51416 19.9949 5.01133 19.4921 4.51201C18.9927 4.0127 18.4899 3.70326 17.8992 3.4747C17.326 3.25317 16.672 3.09846 15.7155 3.05626C14.7521 3.01055 14.4461 3 12.0023 3Z" fill="white"/>
<path d="M12.0023 7.37793C9.4495 7.37793 7.37839 9.44904 7.37839 12.0019C7.37839 14.5547 9.4495 16.6258 12.0023 16.6258C14.5552 16.6258 16.6263 14.5547 16.6263 12.0019C16.6263 9.44904 14.5552 7.37793 12.0023 7.37793ZM12.0023 15.0013C10.3462 15.0013 9.00292 13.6581 9.00292 12.0019C9.00292 10.3457 10.3462 9.00247 12.0023 9.00247C13.6585 9.00247 15.0018 10.3457 15.0018 12.0019C15.0018 13.6581 13.6585 15.0013 12.0023 15.0013Z" fill="white"/>
<path d="M17.8887 7.19499C17.8887 7.79276 17.4034 8.2745 16.8092 8.2745C16.2114 8.2745 15.7296 7.78925 15.7296 7.19499C15.7296 6.59721 16.2149 6.11548 16.8092 6.11548C17.4034 6.11548 17.8887 6.60073 17.8887 7.19499Z" fill="white"/>
</svg>
