<svg width="46" height="46" viewBox="0 0 46 46" fill="none" xmlns="http://www.w3.org/2000/svg">
<g filter="url(#filter0_d_235_726)">
<rect x="3" y="2" width="40" height="40" rx="20" fill="white"/>
<path d="M30 17H27V16C27 14.9391 26.5786 13.9217 25.8284 13.1716C25.0783 12.4214 24.0609 12 23 12C21.9391 12 20.9217 12.4214 20.1716 13.1716C19.4214 13.9217 19 14.9391 19 16V17H16C15.7348 17 15.4804 17.1054 15.2929 17.2929C15.1054 17.4804 15 17.7348 15 18V29C15 29.7956 15.3161 30.5587 15.8787 31.1213C16.4413 31.6839 17.2044 32 18 32H28C28.7956 32 29.5587 31.6839 30.1213 31.1213C30.6839 30.5587 31 29.7956 31 29V18C31 17.7348 30.8946 17.4804 30.7071 17.2929C30.5196 17.1054 30.2652 17 30 17ZM21 16C21 15.4696 21.2107 14.9609 21.5858 14.5858C21.9609 14.2107 22.4696 14 23 14C23.5304 14 24.0391 14.2107 24.4142 14.5858C24.7893 14.9609 25 15.4696 25 16V17H21V16ZM29 29C29 29.2652 28.8946 29.5196 28.7071 29.7071C28.5196 29.8946 28.2652 30 28 30H18C17.7348 30 17.4804 29.8946 17.2929 29.7071C17.1054 29.5196 17 29.2652 17 29V19H19V20C19 20.2652 19.1054 20.5196 19.2929 20.7071C19.4804 20.8946 19.7348 21 20 21C20.2652 21 20.5196 20.8946 20.7071 20.7071C20.8946 20.5196 21 20.2652 21 20V19H25V20C25 20.2652 25.1054 20.5196 25.2929 20.7071C25.4804 20.8946 25.7348 21 26 21C26.2652 21 26.5196 20.8946 26.7071 20.7071C26.8946 20.5196 27 20.2652 27 20V19H29V29Z" fill="#414B53"/>
</g>
<defs>
<filter id="filter0_d_235_726" x="0" y="0" width="46" height="46" filterUnits="userSpaceOnUse" color-interpolation-filters="sRGB">
<feFlood flood-opacity="0" result="BackgroundImageFix"/>
<feColorMatrix in="SourceAlpha" type="matrix" values="0 0 0 0 0 0 0 0 0 0 0 0 0 0 0 0 0 0 127 0" result="hardAlpha"/>
<feOffset dy="1"/>
<feGaussianBlur stdDeviation="1.5"/>
<feComposite in2="hardAlpha" operator="out"/>
<feColorMatrix type="matrix" values="0 0 0 0 0 0 0 0 0 0 0 0 0 0 0 0 0 0 0.1 0"/>
<feBlend mode="normal" in2="BackgroundImageFix" result="effect1_dropShadow_235_726"/>
<feBlend mode="normal" in="SourceGraphic" in2="effect1_dropShadow_235_726" result="shape"/>
</filter>
</defs>
</svg>
