<svg width="98" height="22" viewBox="0 0 98 22" fill="none" xmlns="http://www.w3.org/2000/svg">
<g clip-path="url(#clip0_151_628)">
<path d="M5.74423 13.0054C5.0094 13.0103 4.28073 12.8673 3.59923 12.5844C2.9411 12.3112 2.33615 11.9182 1.81334 11.4243C1.29141 10.9279 0.866676 10.3332 0.562092 9.67242C0.245258 8.98488 0.0708618 8.23703 0.0499938 7.47639C-0.00584102 7.04184 -0.00584102 6.60162 0.0499938 6.16707C0.0737484 5.4201 0.24814 4.68638 0.562092 4.01248C0.86962 3.34716 1.2938 2.74596 1.81334 2.23909C2.87442 1.19871 4.2868 0.623438 5.75228 0.634745H13.6302V4.26606H5.74423C5.18632 4.25939 4.64829 4.4791 4.24659 4.87763C3.95797 5.20124 3.74361 5.5874 3.6193 6.00763C3.495 6.42786 3.46392 6.87145 3.52837 7.30568C3.57706 7.87814 3.8335 8.41072 4.24659 8.79732C4.64774 9.19691 5.18599 9.41731 5.74423 9.41055H8.57524C9.32141 9.40639 10.0608 9.55689 10.7492 9.85307C11.4124 10.1358 12.0181 10.5439 12.5351 11.0563C13.0439 11.5679 13.4605 12.1683 13.7654 12.8297C14.0821 13.5173 14.2565 14.2651 14.2775 15.0257V16.2091C14.2851 16.9888 14.1239 17.7605 13.8057 18.4681C13.4988 19.1471 13.0829 19.7679 12.5754 20.3045C12.0635 20.8435 11.4489 21.2678 10.7702 21.5508C10.0606 21.8482 9.30107 21.9986 8.53498 21.9933H0.452584V18.4118H8.53498C9.05767 18.4205 9.56392 18.2237 9.95049 17.8615C10.3376 17.5155 10.6175 17.0603 10.7557 16.5522V16.3864C10.7552 16.3359 10.7623 16.2856 10.7766 16.2373C10.7918 16.1897 10.7989 16.1398 10.7975 16.0898V15.2876C10.7847 14.6761 10.5423 14.0934 10.1212 13.6617C9.91576 13.4461 9.66962 13.2761 9.39793 13.1621C9.12625 13.048 8.83476 12.9925 8.54142 12.9988L5.74423 13.0054ZM26.7304 22C25.2993 22.0095 23.8816 21.715 22.566 21.1348C20.006 20.0112 17.9642 17.9169 16.8638 15.2859C16.2987 13.94 16.0125 12.4877 16.0231 11.0215C16.0183 9.57058 16.2932 8.13307 16.832 6.79225C17.3707 5.45143 18.1626 4.23394 19.1617 3.21031C20.1441 2.21684 21.2988 1.42191 22.566 0.866779C23.8841 0.294716 25.3 0 26.7304 0C28.1609 0 29.5768 0.294716 30.8948 0.866779C33.4552 1.97471 35.4891 4.07512 36.5568 6.714C37.1199 8.07633 37.4065 9.54273 37.3991 11.0232V11.6563C37.3991 11.8817 37.3701 12.2629 37.3169 12.7966H19.7978C19.9802 13.5943 20.2998 14.3521 20.7415 15.034C21.1713 15.7026 21.6969 16.3005 22.3003 16.8074C23.5501 17.8576 25.117 18.4256 26.7304 18.4134C27.419 18.4054 28.0952 18.2239 28.6999 17.8847C29.3906 17.5073 30.026 17.0314 30.5872 16.471L33.0495 19.0018C32.1748 19.8825 31.1712 20.6163 30.0751 21.1763C29.0376 21.7146 27.8924 21.9967 26.7304 22ZM33.6646 9.20504C33.4479 8.42238 33.1225 7.67604 32.6984 6.98913C32.2863 6.31319 31.7664 5.71365 31.1605 5.21573C30.5491 4.71846 29.8633 4.32664 29.1299 4.05557C27.5762 3.49425 25.8831 3.49425 24.3294 4.05557C22.851 4.59954 21.5889 5.63155 20.7399 6.99078C20.3061 7.66933 19.987 8.41855 19.7962 9.20669L33.6646 9.20504ZM48.0129 0.420944C49.2753 0.409146 50.5216 0.713454 51.6443 1.30764C52.7402 1.88947 53.6993 2.71081 54.4544 3.71415C55.2265 2.71938 56.1904 1.9 57.2854 1.30764C58.4138 0.708449 59.668 0.403947 60.9377 0.420944C62.0319 0.416795 63.1148 0.648849 64.1165 1.10213C66.0802 1.96743 67.6447 3.57763 68.4854 5.59859C68.9234 6.62953 69.1467 7.74344 69.1409 8.86859V22H65.6142V8.86859C65.6204 8.22245 65.4948 7.58216 65.2454 6.98913C64.7627 5.84423 63.875 4.93116 62.7622 4.43511C62.1867 4.17809 61.5651 4.04823 60.9377 4.05391C60.3031 4.04959 59.6745 4.17933 59.0906 4.43511C58.5312 4.67712 58.0226 5.02832 57.593 5.46931C57.1686 5.90676 56.8277 6.42228 56.5881 6.98913C56.3388 7.58216 56.2131 8.22245 56.2193 8.86859V22H52.7313V8.86859C52.7375 8.22245 52.6119 7.58216 52.3625 6.98913C52.12 6.41861 51.7716 5.90234 51.3367 5.46931C50.9019 5.0348 50.3946 4.68447 49.8391 4.43511C49.263 4.17791 48.6409 4.04805 48.0129 4.05391C47.3789 4.04958 46.7508 4.17933 46.1675 4.43511C45.0444 4.92226 44.1477 5.83737 43.665 6.98913C43.4151 7.58203 43.2889 8.22233 43.2946 8.86859V22H39.8082V8.86859C39.8027 7.7424 40.0259 6.62747 40.4636 5.59527C41.3062 3.57585 42.871 1.96715 44.8341 1.10213C45.8359 0.649418 46.9188 0.417929 48.0129 0.422601V0.420944Z" fill="white"/>
<path d="M80.8159 11.1326C80.8189 11.5882 80.7306 12.0396 80.5566 12.4585C80.2163 13.2784 79.5818 13.9314 78.7852 14.2816C78.7015 14.3181 78.6242 14.3496 78.5291 14.3777C78.4696 14.3976 78.41 14.4142 78.3488 14.4308L78.2425 14.459L78.0815 14.4921C78.0283 14.502 77.9752 14.5087 77.9204 14.5153L77.7948 14.5319C77.6966 14.5402 77.5967 14.5468 77.4953 14.5468C77.0526 14.5504 76.6139 14.4596 76.207 14.28C75.4096 13.9311 74.7746 13.2776 74.4356 12.4568C74.2626 12.0377 74.1749 11.5864 74.178 11.1309V0.416016H71.4081V11.1326C71.4049 11.9692 71.5693 12.7974 71.8912 13.5656C72.5074 15.058 73.662 16.2462 75.112 16.8804C75.8659 17.213 76.6783 17.3823 77.4985 17.3776C77.5919 17.3776 77.6853 17.3776 77.7787 17.3776L77.9398 17.3676L78.0444 17.3594L78.2538 17.3362H78.2956L78.5308 17.2997C78.9898 17.2199 79.4379 17.0841 79.8657 16.8953C81.3151 16.2601 82.4693 15.0722 83.0865 13.5805C83.4084 12.8124 83.5729 11.9841 83.5696 11.1475V0.416016H80.8159V11.1326Z" fill="#B0D24C"/>
<path d="M97.4911 4.43007C96.808 2.77708 95.5176 1.46909 93.9013 0.791331C92.285 0.113568 90.4738 0.121005 88.8628 0.812023C88.4081 1.00924 87.976 1.25771 87.5745 1.55287V0.41591H84.8369V17.2018H87.5745V12.5479C87.9714 12.8382 88.396 13.0859 88.8419 13.2871C89.6555 13.6486 90.5323 13.835 91.4185 13.835C92.3046 13.835 93.1814 13.6486 93.995 13.2871C94.7661 12.9426 95.47 12.4569 96.0724 11.8535C96.68 11.2393 97.1628 10.5069 97.4927 9.69887C97.8287 8.86449 98.0016 7.97015 98.0016 7.06696C98.0016 6.16377 97.8287 5.26943 97.4927 4.43505L97.4911 4.43007ZM94.9677 8.59837C94.7837 9.06399 94.5098 9.48632 94.1625 9.83975C93.7979 10.2052 93.371 10.4985 92.9032 10.7049C92.4367 10.9099 91.9346 11.0156 91.4273 11.0156C90.92 11.0156 90.418 10.9099 89.9514 10.7049C89.4837 10.4993 89.0572 10.2059 88.6937 9.83975C88.3463 9.48647 88.0723 9.0641 87.8885 8.59837C87.5507 7.75423 87.5062 6.81598 87.7625 5.94197C88.0188 5.06797 88.5602 4.31173 89.2954 3.80087C90.0306 3.29002 90.9145 3.05585 91.7979 3.13786C92.6814 3.21988 93.5103 3.61307 94.1448 4.25108C94.4967 4.6139 94.7762 5.04405 94.9677 5.51731C95.3606 6.50223 95.3606 7.60682 94.9677 8.59174V8.59837Z" fill="#B0D24C"/>
</g>
<defs>
<clipPath id="clip0_151_628">
<rect width="98" height="22" fill="white"/>
</clipPath>
</defs>
</svg>
